<mxfile host="app.diagrams.net" modified="2021-10-16T00:57:14.125Z" agent="5.0 (Windows NT 10.0; Win64; x64) AppleWebKit/537.36 (KHTML, like Gecko) Chrome/94.0.4606.81 Safari/537.36" etag="ZozIDQ3lqq0BHlNXZtUy" version="15.5.4" type="github">
  <diagram id="yCNn57SNLvQptWG5l8hB" name="Page-1">
    <mxGraphModel dx="1412" dy="919" grid="1" gridSize="10" guides="1" tooltips="1" connect="1" arrows="1" fold="1" page="1" pageScale="1" pageWidth="850" pageHeight="1100" math="0" shadow="0">
      <root>
        <mxCell id="0" />
        <mxCell id="1" parent="0" />
        <mxCell id="0kKGGoPKbYznw5FK-yFZ-14" value="Amplify Cloud Formation" style="rounded=1;whiteSpace=wrap;html=1;verticalAlign=top;align=center;fontStyle=1" vertex="1" parent="1">
          <mxGeometry x="80" y="125" width="640" height="165" as="geometry" />
        </mxCell>
        <mxCell id="0kKGGoPKbYznw5FK-yFZ-7" value="Raspberry Pi" style="rounded=1;whiteSpace=wrap;html=1;verticalAlign=top;" vertex="1" parent="1">
          <mxGeometry x="560" y="30" width="160" height="260" as="geometry" />
        </mxCell>
        <mxCell id="0kKGGoPKbYznw5FK-yFZ-9" style="edgeStyle=orthogonalEdgeStyle;rounded=0;orthogonalLoop=1;jettySize=auto;html=1;entryX=0;entryY=0.25;entryDx=0;entryDy=0;" edge="1" parent="1" source="0kKGGoPKbYznw5FK-yFZ-4" target="0kKGGoPKbYznw5FK-yFZ-8">
          <mxGeometry relative="1" as="geometry" />
        </mxCell>
        <mxCell id="0kKGGoPKbYznw5FK-yFZ-4" value="IoT Analytics (PubSub)" style="rounded=1;whiteSpace=wrap;html=1;verticalAlign=middle;" vertex="1" parent="1">
          <mxGeometry x="300" y="200" width="150" height="50" as="geometry" />
        </mxCell>
        <mxCell id="0kKGGoPKbYznw5FK-yFZ-6" style="edgeStyle=orthogonalEdgeStyle;rounded=0;orthogonalLoop=1;jettySize=auto;html=1;entryX=0;entryY=0.5;entryDx=0;entryDy=0;" edge="1" parent="1" source="0kKGGoPKbYznw5FK-yFZ-5" target="0kKGGoPKbYznw5FK-yFZ-4">
          <mxGeometry relative="1" as="geometry" />
        </mxCell>
        <mxCell id="0kKGGoPKbYznw5FK-yFZ-5" value="Ingress Publisher" style="rounded=0;whiteSpace=wrap;html=1;" vertex="1" parent="1">
          <mxGeometry x="100" y="170" width="120" height="40" as="geometry" />
        </mxCell>
        <mxCell id="0kKGGoPKbYznw5FK-yFZ-8" value="Greengrass Core" style="rounded=1;whiteSpace=wrap;html=1;verticalAlign=top;" vertex="1" parent="1">
          <mxGeometry x="560" y="140" width="160" height="150" as="geometry" />
        </mxCell>
        <mxCell id="0kKGGoPKbYznw5FK-yFZ-16" style="edgeStyle=orthogonalEdgeStyle;rounded=0;orthogonalLoop=1;jettySize=auto;html=1;endArrow=ERmany;endFill=0;" edge="1" parent="1" source="0kKGGoPKbYznw5FK-yFZ-10" target="0kKGGoPKbYznw5FK-yFZ-13">
          <mxGeometry relative="1" as="geometry">
            <Array as="points">
              <mxPoint x="750" y="190" />
              <mxPoint x="750" y="80" />
            </Array>
          </mxGeometry>
        </mxCell>
        <mxCell id="0kKGGoPKbYznw5FK-yFZ-10" value="Application" style="rounded=1;whiteSpace=wrap;html=1;verticalAlign=middle;" vertex="1" parent="1">
          <mxGeometry x="580" y="170" width="120" height="40" as="geometry" />
        </mxCell>
        <mxCell id="0kKGGoPKbYznw5FK-yFZ-12" style="edgeStyle=orthogonalEdgeStyle;rounded=0;orthogonalLoop=1;jettySize=auto;html=1;exitX=1;exitY=0.5;exitDx=0;exitDy=0;endArrow=ERmany;endFill=0;" edge="1" parent="1" source="0kKGGoPKbYznw5FK-yFZ-11" target="0kKGGoPKbYznw5FK-yFZ-13">
          <mxGeometry relative="1" as="geometry">
            <mxPoint x="760" y="290" as="targetPoint" />
            <Array as="points">
              <mxPoint x="790" y="245" />
              <mxPoint x="790" y="100" />
            </Array>
          </mxGeometry>
        </mxCell>
        <mxCell id="0kKGGoPKbYznw5FK-yFZ-11" value="Lambda" style="rounded=1;whiteSpace=wrap;html=1;verticalAlign=middle;" vertex="1" parent="1">
          <mxGeometry x="580" y="225" width="120" height="40" as="geometry" />
        </mxCell>
        <mxCell id="0kKGGoPKbYznw5FK-yFZ-13" value="Sensor/Outputs" style="sketch=0;outlineConnect=0;fontColor=#232F3E;gradientColor=none;strokeColor=#232F3E;fillColor=#ffffff;dashed=0;verticalLabelPosition=bottom;verticalAlign=top;align=center;html=1;fontSize=12;fontStyle=0;aspect=fixed;shape=mxgraph.aws4.resourceIcon;resIcon=mxgraph.aws4.sensor;" vertex="1" parent="1">
          <mxGeometry x="610" y="50" width="60" height="60" as="geometry" />
        </mxCell>
      </root>
    </mxGraphModel>
  </diagram>
</mxfile>
